<svg width="1758" height="424" viewBox="0 0 1758 424" fill="none" xmlns="http://www.w3.org/2000/svg">
<g clip-path="url(#clip0_807_56)">
<path d="M212 424C329.084 424 424 329.084 424 212C424 94.9156 329.084 0 212 0C94.9156 0 0 94.9156 0 212C0 329.084 94.9156 424 212 424Z" fill="url(#paint0_linear_807_56)"/>
<path d="M284.276 107.841C253.257 107.841 228.058 82.6674 228.058 51.748C228.058 42.9312 220.837 35.7259 212 35.7259C203.164 35.7259 195.942 42.9312 195.942 51.748C195.942 82.6981 170.713 107.841 139.725 107.841C130.888 107.841 123.667 115.046 123.667 123.863C123.667 132.68 130.888 139.885 139.725 139.885C170.743 139.885 195.942 165.058 195.942 195.978C195.942 204.795 203.164 212 212 212C220.837 212 228.058 204.795 228.058 195.978C228.058 165.028 253.287 139.885 284.276 139.885C293.112 139.885 300.333 132.68 300.333 123.863C300.333 115.046 293.112 107.841 284.276 107.841Z" fill="white"/>
</g>
<path d="M1673.16 334.127C1655.54 334.127 1639.91 330.156 1626.26 322.214C1612.61 314.024 1601.93 302.856 1594.24 288.71C1586.55 274.315 1582.7 257.687 1582.7 238.825C1582.7 219.715 1586.42 202.962 1593.87 188.567C1601.56 174.173 1611.99 162.88 1625.14 154.69C1638.54 146.5 1654.05 142.405 1671.67 142.405C1689.05 142.405 1704.06 146.128 1716.72 153.574C1729.63 161.019 1739.55 171.443 1746.5 184.845C1753.7 198.247 1757.3 214.006 1757.3 232.124V245.153L1601.31 245.526L1602.06 222.072H1722.3C1722.3 206.933 1717.71 194.772 1708.53 185.589C1699.35 176.406 1687.06 171.815 1671.67 171.815C1660.01 171.815 1649.96 174.421 1641.52 179.633C1633.33 184.597 1627 192.042 1622.53 201.969C1618.31 211.649 1616.21 223.313 1616.21 236.963C1616.21 258.803 1621.17 275.68 1631.1 287.593C1641.02 299.257 1655.29 305.09 1673.91 305.09C1687.56 305.09 1698.73 302.36 1707.41 296.9C1716.1 291.44 1721.93 283.498 1724.91 273.074H1757.67C1753.2 292.432 1743.65 307.448 1729 318.119C1714.36 328.791 1695.75 334.127 1673.16 334.127Z" fill="white"/>
<path d="M1471.39 334.127C1453.77 334.127 1438.14 330.156 1424.49 322.214C1410.84 314.024 1400.16 302.856 1392.47 288.71C1384.78 274.315 1380.93 257.687 1380.93 238.825C1380.93 219.715 1384.65 202.962 1392.1 188.567C1399.79 174.173 1410.22 162.88 1423.37 154.69C1436.77 146.5 1452.28 142.405 1469.9 142.405C1487.28 142.405 1502.29 146.128 1514.95 153.574C1527.85 161.019 1537.78 171.443 1544.73 184.845C1551.93 198.247 1555.53 214.006 1555.53 232.124V245.153L1399.54 245.526L1400.29 222.072H1520.53C1520.53 206.933 1515.94 194.772 1506.76 185.589C1497.58 176.406 1485.29 171.815 1469.9 171.815C1458.24 171.815 1448.19 174.421 1439.75 179.633C1431.56 184.597 1425.23 192.042 1420.76 201.969C1416.54 211.649 1414.43 223.313 1414.43 236.963C1414.43 258.803 1419.4 275.68 1429.33 287.593C1439.25 299.257 1453.52 305.09 1472.14 305.09C1485.79 305.09 1496.96 302.36 1505.64 296.9C1514.33 291.44 1520.16 283.498 1523.14 273.074H1555.9C1551.43 292.432 1541.88 307.448 1527.23 318.119C1512.59 328.791 1493.98 334.127 1471.39 334.127Z" fill="white"/>
<path d="M1158.81 233.985C1158.81 216.86 1162.28 201.473 1169.23 187.823C1176.18 173.925 1186.11 162.88 1199.01 154.69C1211.92 146.5 1227.18 142.405 1244.8 142.405C1261.18 142.405 1275.21 146.376 1286.87 154.318C1298.54 162.012 1306.85 172.808 1311.81 186.706L1307.35 191.546L1311.07 147.617H1342.34V322.214C1342.34 341.325 1338.62 357.829 1331.17 371.727C1323.73 385.874 1313.18 396.794 1299.53 404.487C1285.88 412.181 1269.75 416.028 1251.13 416.028C1226.32 416.028 1205.96 409.451 1190.08 396.297C1174.2 383.144 1164.52 365.026 1161.04 341.945H1196.04C1198.27 355.347 1204.23 365.771 1213.91 373.216C1223.59 380.662 1235.99 384.385 1251.13 384.385C1268.26 384.385 1281.91 379.173 1292.08 368.749C1302.51 358.573 1307.72 344.799 1307.72 327.426V276.052L1312.19 280.892C1307.47 294.542 1298.91 305.338 1286.5 313.28C1274.09 320.974 1259.7 324.82 1243.32 324.82C1225.94 324.82 1210.93 320.849 1198.27 312.908C1185.61 304.717 1175.81 293.797 1168.86 280.147C1162.16 266.497 1158.81 251.11 1158.81 233.985ZM1193.8 233.241C1193.8 244.657 1196.04 254.957 1200.5 264.139C1205.22 273.322 1211.67 280.644 1219.86 286.104C1228.3 291.564 1238.1 294.294 1249.27 294.294C1261.18 294.294 1271.36 291.688 1279.8 286.476C1288.24 281.264 1294.69 274.067 1299.16 264.884C1303.87 255.701 1306.23 245.153 1306.23 233.241C1306.23 221.328 1304 210.904 1299.53 201.969C1295.06 193.035 1288.61 185.962 1280.17 180.75C1271.73 175.538 1261.56 172.932 1249.64 172.932C1237.98 172.932 1227.93 175.662 1219.49 181.122C1211.3 186.582 1204.97 193.903 1200.5 203.086C1196.04 212.021 1193.8 222.072 1193.8 233.241Z" fill="white"/>
<path d="M942.125 238.452C942.125 219.839 946.22 203.334 954.41 188.94C962.6 174.545 973.768 163.253 987.914 155.063C1002.31 146.873 1018.69 142.778 1037.05 142.778C1055.42 142.778 1071.68 146.873 1085.82 155.063C1099.97 163.253 1111.14 174.545 1119.33 188.94C1127.52 203.334 1131.61 219.839 1131.61 238.452C1131.61 257.066 1127.52 273.57 1119.33 287.965C1111.14 302.36 1099.97 313.652 1085.82 321.842C1071.68 330.032 1055.42 334.127 1037.05 334.127C1018.69 334.127 1002.31 330.032 987.914 321.842C973.768 313.652 962.6 302.36 954.41 287.965C946.22 273.57 942.125 257.066 942.125 238.452ZM977.491 238.452C977.491 251.11 979.973 262.278 984.936 271.957C990.148 281.636 997.221 289.206 1006.16 294.666C1015.09 300.126 1025.39 302.856 1037.05 302.856C1048.72 302.856 1059.02 300.126 1067.95 294.666C1076.89 289.206 1083.84 281.636 1088.8 271.957C1094.01 262.278 1096.62 251.11 1096.62 238.452C1096.62 225.547 1094.01 214.379 1088.8 204.948C1083.84 195.268 1076.89 187.699 1067.95 182.239C1059.02 176.779 1048.72 174.049 1037.05 174.049C1025.39 174.049 1015.09 176.779 1006.16 182.239C997.221 187.699 990.148 195.268 984.936 204.948C979.973 214.379 977.491 225.547 977.491 238.452Z" fill="white"/>
<path d="M730.817 411.188V147.617H762.46L765.066 180.377C771.023 167.72 779.833 158.289 791.498 152.084C803.411 145.632 816.564 142.405 830.959 142.405C848.332 142.405 863.347 146.5 876.004 154.69C888.662 162.632 898.341 173.801 905.042 188.195C911.991 202.342 915.466 218.722 915.466 237.336C915.466 255.949 912.115 272.578 905.414 287.221C898.961 301.863 889.406 313.404 876.749 321.842C864.34 330.28 849.077 334.5 830.959 334.5C816.316 334.5 803.287 331.521 791.87 325.565C780.454 319.609 771.767 311.046 765.811 299.878V411.188H730.817ZM766.183 238.825C766.183 250.986 768.417 262.03 772.884 271.957C777.6 281.636 784.176 289.206 792.615 294.666C801.301 300.126 811.601 302.856 823.514 302.856C835.426 302.856 845.602 300.126 854.04 294.666C862.478 288.958 868.931 281.264 873.399 271.585C878.114 261.906 880.472 250.986 880.472 238.825C880.472 226.167 878.114 214.999 873.399 205.32C868.931 195.641 862.478 188.071 854.04 182.611C845.602 177.151 835.426 174.421 823.514 174.421C811.601 174.421 801.301 177.151 792.615 182.611C784.176 188.071 777.6 195.641 772.884 205.32C768.417 214.999 766.183 226.167 766.183 238.825Z" fill="white"/>
<path d="M501.454 329.66H463.482L561.763 60.5046H602.341L700.994 329.66H662.65L638.452 262.65H525.28L501.454 329.66ZM577.398 118.58L536.448 231.007H627.656L586.333 118.58C585.588 115.85 584.72 113.12 583.727 110.39C582.734 107.411 582.114 104.929 581.866 102.944C581.369 104.929 580.749 107.411 580.004 110.39C579.26 113.12 578.391 115.85 577.398 118.58Z" fill="white"/>
<defs>
<linearGradient id="paint0_linear_807_56" x1="212" y1="0" x2="212" y2="424" gradientUnits="userSpaceOnUse">
<stop stop-color="#0E2C52"/>
<stop offset="1" stop-color="#03060C"/>
</linearGradient>
<clipPath id="clip0_807_56">
<rect width="424" height="424" fill="white"/>
</clipPath>
</defs>
</svg>
