<svg width="1080" height="1080" viewBox="0 0 1080 1080" fill="none" xmlns="http://www.w3.org/2000/svg">
<g clip-path="url(#clip0_805_15)">
<circle cx="540" cy="540" r="540" fill="url(#apogeeSky)"/>
<path d="M724.098 274.689C645.088 274.689 580.902 210.568 580.902 131.811C580.902 109.353 562.508 91 540 91C517.492 91 499.098 109.353 499.098 131.811C499.098 210.646 434.834 274.689 355.902 274.689C333.394 274.689 315 293.042 315 315.5C315 337.958 333.394 356.311 355.902 356.311C434.912 356.311 499.098 420.432 499.098 499.189C499.098 521.647 517.492 540 540 540C562.508 540 580.902 521.647 580.902 499.189C580.902 420.354 645.166 356.311 724.098 356.311C746.606 356.311 765 337.958 765 315.5C765 293.042 746.606 274.689 724.098 274.689Z" fill="white"/>
</g>
<defs>
<linearGradient id="apogeeSky" x1="540" y1="0" x2="540" y2="1080" gradientUnits="userSpaceOnUse">
<stop stop-color="#0e2c52"/>
<stop offset="1" stop-color="#03060c"/>
</linearGradient>
<clipPath id="clip0_805_15">
<rect width="1080" height="1080" fill="white"/>
</clipPath>
</defs>
</svg>
