<svg width="96" height="204" viewBox="0 0 96 204" fill="none" xmlns="http://www.w3.org/2000/svg">
<path d="M86.9874 1H8.56984C4.38913 1 1 4.38913 1 8.56984V194.739C1 198.92 4.38913 202.309 8.56984 202.309H86.9874C91.1681 202.309 94.5572 198.92 94.5572 194.739V8.56984C94.5572 4.38913 91.1681 1 86.9874 1Z" fill="none" stroke="#5bb7ff" stroke-width="2"/>
<path d="M66.9578 170.568H28.6019C27.3925 170.568 26.412 171.549 26.412 172.758V192.056C26.412 193.265 27.3925 194.246 28.6019 194.246H66.9578C68.1673 194.246 69.1478 193.265 69.1478 192.056V172.758C69.1478 171.549 68.1673 170.568 66.9578 170.568Z" fill="none" stroke="#5bb7ff" stroke-width="2"/>
<g filter="url(#filter0_d_13_155)">
<path d="M83.1822 10.7788H12.377C11.8998 10.7788 11.513 11.1657 11.513 11.6428V146.448C11.513 146.925 11.8998 147.312 12.377 147.312H83.1822C83.6594 147.312 84.0462 146.925 84.0462 146.448V11.6428C84.0462 11.1657 83.6594 10.7788 83.1822 10.7788Z" fill="none" stroke="#5bb7ff" stroke-width="2"/>
</g>
<path d="M33.245 77C37.111 77 40.245 73.866 40.245 70C40.245 66.134 37.111 63 33.245 63C29.379 63 26.245 66.134 26.245 70C26.245 73.866 29.379 77 33.245 77Z" fill="none" stroke="#5bb7ff" stroke-width="2" stroke-miterlimit="10"/>
<path d="M62.245 77C66.111 77 69.245 73.866 69.245 70C69.245 66.134 66.111 63 62.245 63C58.379 63 55.245 66.134 55.245 70C55.245 73.866 58.379 77 62.245 77Z" fill="none" stroke="#5bb7ff" stroke-width="2" stroke-miterlimit="10"/>
<path d="M34.245 96C41.7131 89.3333 53.7769 89.3333 61.245 96" fill="none" stroke="#5bb7ff" stroke-width="2" stroke-miterlimit="10" stroke-linecap="round"/>
<defs>
<filter id="filter0_d_13_155" x="8.36104" y="7.62688" width="78.8371" height="142.837" filterUnits="userSpaceOnUse" color-interpolation-filters="sRGB">
<feFlood flood-opacity="0" result="BackgroundImageFix"/>
<feColorMatrix in="SourceAlpha" type="matrix" values="0 0 0 0 0 0 0 0 0 0 0 0 0 0 0 0 0 0 127 0" result="hardAlpha"/>
<feOffset/>
<feGaussianBlur stdDeviation="1.07598"/>
<feComposite in2="hardAlpha" operator="out"/>
<feColorMatrix type="matrix" values="0 0 0 0 0.356863 0 0 0 0 0.717647 0 0 0 0 1 0 0 0 0.6 0"/>
<feBlend mode="normal" in2="BackgroundImageFix" result="effect1_dropShadow_13_155"/>
<feBlend mode="normal" in="SourceGraphic" in2="effect1_dropShadow_13_155" result="shape"/>
</filter>
</defs>
</svg>
