<svg viewBox="98.97 61.05 298.84 194.24" fill="none" xmlns="http://www.w3.org/2000/svg">
<path d="M108.365 143.456L119.068 105.745C119.068 105.745 119.068 103.707 122.508 100.393C125.948 97.0815 153.085 72.2371 153.085 72.2371C153.085 72.2371 155.25 69.0513 163.531 71.7284C171.812 74.403 380.758 154.159 380.758 154.159C380.758 154.159 389.805 157.471 388.785 164.225C387.765 170.977 383.561 200.665 383.561 200.665C383.561 200.665 382.033 205.888 380.504 209.582C378.975 213.277 367.126 241.307 367.126 241.307C367.126 241.307 364.069 247.296 355.022 244.238C345.976 241.181 112.442 151.487 112.442 151.487C112.442 151.487 106.965 148.175 108.365 143.461V143.456Z" fill="none" stroke="#5bb7ff" stroke-width="0.85"/>
<path d="M116.736 114.008C116.736 114.008 116.3 119.077 123.886 121.928C131.471 124.782 207.82 153.756 207.82 153.756L197.613 184.136" stroke="#5bb7ff" stroke-width="0.85"/>
<path d="M121.65 101.29C121.65 101.29 118.23 105.412 124.911 108.47C131.592 111.527 371.81 202.284 371.81 202.284C371.81 202.284 381.605 205.926 383.561 200.662" stroke="#5bb7ff" stroke-width="0.85"/>
<path d="M310.57 196.763L330.536 204.377C330.536 204.377 338.509 208.686 335.636 216.085C332.762 223.481 324.719 220.537 323.283 220.036C321.848 219.535 304.251 212.997 304.251 212.997C304.251 212.997 296.998 209.693 299.081 201.866C301.164 194.036 310.572 196.766 310.572 196.766L310.57 196.763Z" fill="none" stroke="#5bb7ff" stroke-width="0.85"/>
<path d="M347.558 155.109L343.032 172.634C343.032 172.634 341.524 175.508 344.541 176.8C347.558 178.092 372.624 187.644 372.624 187.644C372.624 187.644 375.641 188.793 375.999 186.566C376.359 184.34 379.159 166.744 379.159 166.744C379.159 166.744 379.807 163.87 376.716 162.722C373.629 161.573 350.285 153.096 350.285 153.096C349.124 152.782 348.074 152.918 347.556 155.109H347.558Z" fill="none" stroke="#5bb7ff" stroke-width="0.85"/>
<path d="M136.272 104.012L163.068 77.075C163.264 76.8811 163.556 76.8207 163.816 76.9189L322.812 137.323C323.167 137.457 323.351 137.847 323.235 138.207L312.328 170.773C312.202 171.159 311.781 171.36 311.403 171.216L136.516 105.183C136.03 104.999 135.899 104.375 136.272 104.012Z" fill="none" stroke="#5bb7ff" stroke-width="0.85"/>
</svg>
